<?xml version="1.0" encoding="UTF-8"?>
<svg width="64" height="64" version="1.1" viewBox="0 0 64 64" xmlns="http://www.w3.org/2000/svg">
 <g transform="matrix(.70555 0 0 .70555 3.9271 -.09592)" fill-rule="evenodd">
  <path d="m73.95 18.657-28.637-16.999c-3.418-2.029-7.631-2.029-11.049 0l-28.637 16.999c-3.417 2.029-5.523 5.778-5.523 9.836v33.998c0 4.057 2.106 7.808 5.524 9.837l28.637 16.996c1.709 1.015 3.615 1.521 5.524 1.521 1.908 0 3.814-0.506 5.523-1.521l28.637-16.996c3.418-2.029 5.525-5.78 5.525-9.837v-33.998c0-4.058-2.107-7.807-5.524-9.836z" fill="#fefefe"/>
  <path d="m35.266 87.583-28.637-16.996c-2.801-1.663-4.541-4.765-4.541-8.097v-33.997c0-3.332 1.74-6.434 4.54-8.096l28.638-16.999c1.373-0.815 2.937-1.246 4.523-1.246 1.585 0 3.149 0.431 4.523 1.246l28.637 16.999c2.36 1.401 3.952 3.827 4.4 6.548-0.95-2.027-3.092-2.578-5.588-1.12l-27.092 16.734c-3.378 1.975-5.869 4.191-5.871 8.264v33.383c-2e-3 2.439 0.983 4.019 2.496 4.477-0.497 0.086-0.998 0.146-1.505 0.146-1.586 0-3.15-0.431-4.523-1.246m38.684-68.927-28.637-16.998c-1.709-1.015-3.617-1.522-5.524-1.522-1.908 0-3.816 0.507-5.525 1.522l-28.637 16.998c-3.417 2.029-5.523 5.779-5.523 9.837v33.997c0 4.057 2.106 7.808 5.524 9.837l28.637 16.997c1.71 1.014 3.616 1.521 5.524 1.521s3.814-0.507 5.523-1.521l28.638-16.997c3.418-2.029 5.524-5.78 5.524-9.837v-33.997c0-4.058-2.106-7.808-5.524-9.837" fill="#3e474a"/>
  <path d="m66.443 65.777-7.131 4.268c-0.189 0.11-0.328 0.234-0.329 0.461v1.866c0 0.228 0.153 0.323 0.342 0.212l7.241-4.401c0.189-0.11 0.218-0.321 0.219-0.548v-1.646c0-0.227-0.153-0.322-0.342-0.212" fill="#47b353"/>
  <path d="m51.258 50.07c0.231-0.117 0.421 0.027 0.424 0.329l0.024 2.467c1.033-0.411 1.93-0.521 2.743-0.333 0.176 0.047 0.254 0.287 0.182 0.572l-0.543 2.186c-0.042 0.165-0.135 0.332-0.247 0.436-0.047 0.046-0.095 0.082-0.143 0.106-0.073 0.037-0.145 0.049-0.214 0.035-0.371-0.084-1.253-0.277-2.641 0.426-1.456 0.737-1.965 2.002-1.955 2.941 0.012 1.121 0.587 1.461 2.573 1.495 2.646 0.044 3.789 1.2 3.817 3.865 0.027 2.617-1.37 5.427-3.507 7.149l0.047 2.442c3e-3 0.294-0.188 0.631-0.419 0.748l-1.446 0.833c-0.232 0.117-0.422-0.027-0.425-0.321l-0.025-2.402c-1.239 0.515-2.494 0.639-3.296 0.317-0.151-0.059-0.216-0.282-0.156-0.536l0.524-2.208c0.042-0.174 0.134-0.348 0.259-0.459 0.044-0.043 0.09-0.076 0.136-0.099 0.083-0.042 0.164-0.051 0.233-0.025 0.864 0.291 1.969 0.155 3.032-0.383 1.35-0.683 2.253-2.06 2.239-3.428-0.013-1.241-0.685-1.757-2.319-1.769-2.08 6e-3 -4.019-0.404-4.051-3.466-0.026-2.521 1.285-5.144 3.36-6.803l-0.026-2.465c-3e-3 -0.303 0.182-0.636 0.42-0.756z" fill="#fefefe"/>
 </g>
</svg>
